<svg id="Layer_1" data-name="Layer 1" xmlns="http://www.w3.org/2000/svg" width="99.9" height="99.9" viewBox="0 0 99.9 99.9"><title>instagram</title><path d="M99.8,76.9c.1,12.3-7.9,22.9-22.6,23H22.9C11.7,99.9,0,93.9,0,75V24.9C0,8.8,10,0,21.5,0H78.3C91.4,0,99.9,8.4,99.9,21.2S99.8,64.3,99.8,76.9ZM88.7,34c0-11.3-9.7-22.8-22.2-22.8s-22.1-.3-33.2,0-21.2,7.9-21.8,19c-.6,13.2-.6,26.4,0,39.5a19.6,19.6,0,0,0,19,18.7c12.9.5,25.9.4,38.8,0,9.9-.4,18.6-8.5,18.8-17.6S88.7,45.2,88.7,34Z" fill="#231f20"/><path d="M20.4,30.3A11.5,11.5,0,0,1,31.8,20.1c12-.2,24-.3,36,0,6.6.2,11.6,4.9,11.8,11.4.4,12.3.5,24.5,0,36.8-.2,7-5.6,11.5-12.7,11.7-11.3.2-22.6.2-33.8,0-7.8-.2-13-5.4-13.3-13.2C19.6,61.2,19.5,36.8,20.4,30.3ZM49.8,69.1A19.3,19.3,0,0,0,69.1,50,19.5,19.5,0,0,0,49.9,30.8c-10.3,0-19,8.5-19,18.7S39,69,49.8,69.1ZM69.6,34.6a4.3,4.3,0,0,0,4.6-4.4,4.4,4.4,0,0,0-4.5-4.5A4.5,4.5,0,0,0,65.2,30,4.4,4.4,0,0,0,69.6,34.6Z" fill="#231f20"/><path d="M49.9,62.3A12.4,12.4,0,0,1,37.5,50.1,12.4,12.4,0,1,1,49.9,62.3Z" fill="#231f20"/></svg>