<svg id="Layer_1" data-name="Layer 1" xmlns="http://www.w3.org/2000/svg" width="633.2" height="728.3" viewBox="0 0 633.2 728.3"><title>logo</title><path d="M230.5,711.3c-2.8,2-12.9,8.8-15.7,10.5-12.4-10.1-24.5-20.7-36.3-31.6,3.1-2.2,12-9.6,20.8-15.8,12.3-7.6,32.9-19.6,46.5-7.6C262.6,681.7,241.7,701.8,230.5,711.3ZM209.6,682c-1.4,1-3.3,2.6-3.3,2.6,4.4,4.5,11.5,11.3,18.5,17.4l1.7-1.2c7.2-5.3,6.6-13.2,1.2-18C220.7,676.6,214.3,678.6,209.6,682Z" fill="#231f20"/><path d="M289.8,644.2l-17,16.5c3.4,2.1,7.2.3,12.1-4a30.6,30.6,0,0,0,6-8l5.8,6.3a42.4,42.4,0,0,1-9,10.6c-8.3,7.6-22.5,12.8-31.7,5.2s-2.8-20.9,4.8-27.2,18.8-8.2,24.7-3.4C287.3,641.7,289.1,643.6,289.8,644.2Zm-21.9,3.9c-3.4,3-2.5,6.5-.1,8.5,3.3-3.2,4.9-4.8,8.1-8.1l-.8-.8C273.2,646.2,270.6,645.8,267.9,648.1Z" fill="#231f20"/><path d="M317.1,638.6A95.6,95.6,0,0,1,304,649.7l-7.8-5a29.8,29.8,0,0,0,7.6-4.9c2.6-2.5,3.2-4.5,1.9-5.5s-3.2-1-8.6,1.1-8.2,2-11.2-.5c-5-4-2.4-11.4,5.8-19.3a120,120,0,0,1,11.4-9.7c2.8,1.9,4.1,2.9,6.9,4.7a24.8,24.8,0,0,0-5.9,4.4c-1.8,1.8-2.3,3.2-1.2,4.1s2.7.6,8-1.5,8.3-2.2,11.5.2C327.7,621.7,326.4,629.5,317.1,638.6Z" fill="#231f20"/><path d="M311.1,590.7c-3.7,3.9-8.9,5.2-11.6,3s-1.9-7.1,1.8-11,8.8-5.4,11.7-3S314.9,586.8,311.1,590.7ZM346,606.6c-4.5,5.5-6.7,8.2-11.4,13.6-8.6-6.2-17.2-12.6-25.9-18.7,2.8-3.3,9.4-11.5,11.6-14.6C328.7,593.7,337.2,600.4,346,606.6Z" fill="#231f20"/><path d="M352.4,550c10.7,8.3,21.6,16.3,32.8,23.7-.7,3.8-3,10.4-10.5,19.5a72.5,72.5,0,0,1-7.3,7.9l-7.5-3.8c.1-.1.3-.2.4-.4a48.5,48.5,0,0,0,5.8-6,54.4,54.4,0,0,0,4.9-7.2c-1.7-1.1-3.6-2.2-4.6-2.7a17.9,17.9,0,0,1-4.1,8.2c-6.2,7.4-16.9,10.8-24.5,5.2-9.4-7-5.7-20,1-27.6,3.9-4.5,9.4-7.1,10.5-8.4s2.7-8.2,2.7-8.2Zm-4.3,19.1a9.6,9.6,0,0,0-1.4,1.5c-2.6,3.1-2.6,6.4,2.2,9.8s8.3,1.7,10.4-.8a16,16,0,0,0,1.1-1.9Z" fill="#231f20"/><path d="M406.4,529.3c-3.4,5.8-5.1,8.7-8.6,14.5-8-4.8-11.9-7.3-19.5-12.4a31,31,0,0,0-3,5.7c6.7,4.8,10.1,7.1,17.1,11.8-3.7,5.7-5.5,8.6-9.3,14.3-8.7-5.4-17.2-11-25.6-16.7,3.4-5.9,5.1-8.8,8.4-14.7l2.7,1.9a28.5,28.5,0,0,1,5.1-12c2.8-3.9,7.2-6.9,10.3-7.8C392.8,520.2,397.3,523.3,406.4,529.3Z" fill="#231f20"/><path d="M256.4,127.2V94.4L462.1,307.8V11.5C448.2,7.7,421.1,1,391.7,0,233.2,0,86.9,128.9,86.9,287.4V441.6C86.9,488,66.4,528,20,528H0V728.1c8.8,0,11.2.4,20,0,95.6-4,172.1-48.9,236.4-115.6Z" fill="#231f20"/><path d="M485.7,18.1v346l-23.6-24.3L279.5,151V588.2c48.3-43.8,81.1-76.5,109-123.1L633.2,715.3V97.6C602.3,72.6,558.5,46.6,485.7,18.1Z" fill="#231f20"/></svg>